<svg width="512" height="512" viewBox="0 0 512 512" xmlns="http://www.w3.org/2000/svg">
  <defs>
    <linearGradient id="background" x1="70" y1="52" x2="438" y2="464" gradientUnits="userSpaceOnUse">
      <stop stop-color="#1b1d25"/>
      <stop offset="1" stop-color="#0c0d12"/>
    </linearGradient>
    <linearGradient id="portal" x1="151" y1="121" x2="362" y2="397" gradientUnits="userSpaceOnUse">
      <stop stop-color="#f5f7f2"/>
      <stop offset=".58" stop-color="#b9ffd4"/>
      <stop offset="1" stop-color="#5ce59a"/>
    </linearGradient>
    <radialGradient id="aura" cx="0" cy="0" r="1" gradientTransform="translate(258 257) rotate(90) scale(184)" gradientUnits="userSpaceOnUse">
      <stop stop-color="#62e9a0" stop-opacity=".17"/>
      <stop offset="1" stop-color="#62e9a0" stop-opacity="0"/>
    </radialGradient>
    <filter id="glow" x="-40%" y="-40%" width="180%" height="180%">
      <feGaussianBlur stdDeviation="7" result="blur"/>
      <feMerge>
        <feMergeNode in="blur"/>
        <feMergeNode in="SourceGraphic"/>
      </feMerge>
    </filter>
  </defs>

  <rect width="512" height="512" rx="112" fill="url(#background)"/>
  <rect x="18" y="18" width="476" height="476" rx="96" fill="none" stroke="#ffffff" stroke-opacity=".06" stroke-width="2"/>
  <circle cx="258" cy="257" r="184" fill="url(#aura)"/>

  <!-- An open Construct portal that also reads as a geometric C. -->
  <path d="M354 126H191C168 126 150 144 150 167V345C150 368 168 386 191 386H354"
        fill="none" stroke="#5ce59a" stroke-opacity=".18" stroke-width="42" stroke-linecap="round" filter="url(#glow)"/>
  <path d="M354 126H191C168 126 150 144 150 167V345C150 368 168 386 191 386H354"
        fill="none" stroke="url(#portal)" stroke-width="28" stroke-linecap="round" stroke-linejoin="round"/>

  <!-- Connected knowledge moving through the portal. -->
  <g fill="none" stroke="#7d80f7" stroke-width="11" stroke-linecap="round" stroke-linejoin="round">
    <path d="M207 258L270 197L329 251L278 319L207 258Z"/>
    <path d="M270 197L278 319"/>
  </g>
  <g stroke="#f6f7ff" stroke-width="7">
    <circle cx="207" cy="258" r="16" fill="#64e7a0"/>
    <circle cx="270" cy="197" r="16" fill="#8b8cf8"/>
    <circle cx="329" cy="251" r="16" fill="#64e7a0"/>
    <circle cx="278" cy="319" r="16" fill="#8b8cf8"/>
  </g>
</svg>
